<?xml version="1.0" encoding="utf-8"?>
<!-- Generator: Adobe Illustrator 22.0.1, SVG Export Plug-In . SVG Version: 6.00 Build 0)  -->
<svg version="1.1" id="Capa_1" xmlns="http://www.w3.org/2000/svg" xmlns:xlink="http://www.w3.org/1999/xlink" x="0px" y="0px"
	 width="300px" height="132px" viewBox="0 0 300 132" style="enable-background:new 0 0 300 132;" xml:space="preserve">
<style type="text/css">
	.st0{fill:#E6431E;}
	.st1{fill:#1D1D1B;}
	.st2{fill:#FFFFFF;}
</style>
<g>
	<path class="st0" d="M0.1,66c0-36.5,29.5-66,66-66c36.5,0,66,29.5,66,66c0,36.5-29.5,66-66,66C29.6,132,0.1,102.5,0.1,66z"/>
	<g>
		<g>
			<path class="st1" d="M152.6,26.7h8.3c2.6,0,4.6,0.2,6,0.6c1.4,0.4,2.4,1.2,3.3,2.5c0.8,1.2,1.2,3.3,1.2,6c0,1.9-0.3,3.2-0.9,3.9
				c-0.6,0.7-1.7,1.3-3.5,1.7c1.9,0.4,3.2,1.2,3.9,2.2c0.7,1,1,2.6,1,4.6v3c0,2.2-0.2,3.8-0.7,4.8c-0.5,1-1.3,1.8-2.4,2.1
				c-1.1,0.4-3.3,0.6-6.6,0.6h-9.6V26.7z M160.9,32.1v7.1c0.4,0,0.6,0,0.8,0c0.8,0,1.3-0.2,1.6-0.6c0.2-0.4,0.3-1.6,0.3-3.5
				c0-1-0.1-1.7-0.3-2.1c-0.2-0.4-0.4-0.7-0.7-0.8C162.4,32.2,161.8,32.2,160.9,32.1z M160.9,44.3v9c1.2,0,1.9-0.2,2.2-0.6
				c0.3-0.3,0.5-1.1,0.5-2.4v-3c0-1.4-0.1-2.2-0.4-2.5C162.9,44.5,162.2,44.3,160.9,44.3z"/>
			<path class="st1" d="M183,26.7v4.2h-8.2v-4.2H183z M183,32.4v26.3h-8.2V32.4H183z"/>
			<path class="st1" d="M204,32.4v20.2c0,2.7-0.1,4.5-0.2,5.3c-0.1,0.8-0.6,1.6-1.3,2.5c-0.8,0.9-1.8,1.6-3.2,2
				c-1.4,0.5-3.1,0.7-5.2,0.7c-2.5,0-4.6-0.4-6.1-1.3c-1.5-0.9-2.3-2.6-2.4-5.1h7.8c0,1.2,0.4,1.7,1.3,1.7c0.6,0,1-0.2,1.2-0.5
				c0.2-0.4,0.3-1.1,0.3-2.2v-2c-0.7,0.6-1.4,1.1-2.2,1.4c-0.8,0.3-1.6,0.5-2.4,0.5c-1.4,0-2.6-0.3-3.6-0.9
				c-0.9-0.6-1.6-1.3-1.9-2.3c-0.3-0.9-0.5-2.3-0.5-4V39c0-2.5,0.4-4.3,1.3-5.4c0.9-1.1,2.3-1.6,4.1-1.6c1,0,1.9,0.2,2.7,0.6
				c0.8,0.4,1.6,1,2.2,1.8l0.6-2H204z M196,39.4c0-1.2-0.1-2-0.2-2.3c-0.1-0.3-0.4-0.5-0.9-0.5c-0.5,0-0.8,0.2-1,0.6
				c-0.2,0.4-0.3,1.1-0.3,2.2v8.8c0,1.2,0.1,1.9,0.2,2.3c0.1,0.3,0.4,0.5,0.9,0.5c0.5,0,0.9-0.2,1-0.6c0.2-0.4,0.2-1.4,0.2-2.9V39.4
				z"/>
			<path class="st1" d="M152.6,63h6.2c4,0,6.7,0.2,8.2,0.6c1.4,0.4,2.5,1,3.2,1.8c0.7,0.8,1.2,1.8,1.4,2.8c0.2,1,0.3,3.1,0.3,6.1
				v11.2c0,2.9-0.1,4.8-0.4,5.8c-0.3,1-0.7,1.7-1.4,2.3c-0.7,0.5-1.5,0.9-2.5,1.1c-1,0.2-2.5,0.3-4.5,0.3h-10.5V63z M160.9,68.5
				v21.1c1.2,0,1.9-0.2,2.2-0.7c0.3-0.5,0.4-1.8,0.4-3.9V72.4c0-1.5,0-2.4-0.1-2.8c-0.1-0.4-0.3-0.7-0.6-0.9
				C162.5,68.6,161.8,68.5,160.9,68.5z"/>
			<path class="st1" d="M181.9,78.9h-7.5v-1.8c0-2,0.2-3.6,0.7-4.7c0.5-1.1,1.4-2.1,2.8-2.9c1.4-0.8,3.2-1.3,5.5-1.3
				c2.7,0,4.7,0.5,6.1,1.4c1.4,1,2.2,2.1,2.5,3.5c0.3,1.4,0.4,4.3,0.4,8.6V95h-7.8v-2.3c-0.5,0.9-1.1,1.6-1.9,2.1
				c-0.8,0.5-1.7,0.7-2.8,0.7c-1.4,0-2.7-0.4-3.8-1.2c-1.2-0.8-1.8-2.5-1.8-5.2V87c0-2,0.3-3.3,0.9-4c0.6-0.7,2.2-1.5,4.6-2.5
				c2.6-1,4-1.7,4.2-2.1c0.2-0.4,0.3-1.1,0.3-2.2c0-1.4-0.1-2.3-0.3-2.7c-0.2-0.4-0.5-0.6-1-0.6c-0.5,0-0.9,0.2-1,0.5
				c-0.1,0.3-0.2,1.3-0.2,2.7V78.9z M184.4,82.5c-1.3,0.9-2,1.7-2.2,2.4c-0.2,0.6-0.3,1.5-0.3,2.7c0,1.4,0.1,2.2,0.3,2.6
				c0.2,0.4,0.5,0.6,1.1,0.6c0.5,0,0.8-0.2,1-0.5c0.2-0.3,0.2-1.1,0.2-2.4V82.5z"/>
			<path class="st1" d="M203.6,65.3v4.1h2.2v4.2h-2.2v14.1c0,1.7,0.1,2.7,0.3,2.9c0.2,0.2,0.9,0.3,2.2,0.3V95h-3.2
				c-1.8,0-3.1-0.1-3.9-0.2c-0.8-0.2-1.5-0.5-2.1-1c-0.6-0.5-1-1.2-1.1-1.9c-0.1-0.7-0.2-2.4-0.2-5V73.5h-1.7v-4.2h1.7v-4.1H203.6z"
				/>
			<path class="st1" d="M214.7,78.9h-7.5v-1.8c0-2,0.2-3.6,0.7-4.7c0.5-1.1,1.4-2.1,2.8-2.9c1.4-0.8,3.2-1.3,5.5-1.3
				c2.7,0,4.7,0.5,6.1,1.4c1.4,1,2.2,2.1,2.5,3.5c0.3,1.4,0.4,4.3,0.4,8.6V95h-7.8v-2.3c-0.5,0.9-1.1,1.6-1.9,2.1
				c-0.8,0.5-1.7,0.7-2.8,0.7c-1.4,0-2.7-0.4-3.8-1.2c-1.2-0.8-1.8-2.5-1.8-5.2V87c0-2,0.3-3.3,0.9-4c0.6-0.7,2.2-1.5,4.6-2.5
				c2.6-1,4-1.7,4.2-2.1c0.2-0.4,0.3-1.1,0.3-2.2c0-1.4-0.1-2.3-0.3-2.7c-0.2-0.4-0.5-0.6-1-0.6c-0.5,0-0.9,0.2-1,0.5
				c-0.1,0.3-0.2,1.3-0.2,2.7V78.9z M217.2,82.5c-1.3,0.9-2,1.7-2.2,2.4c-0.2,0.6-0.3,1.5-0.3,2.7c0,1.4,0.1,2.2,0.3,2.6
				c0.2,0.4,0.5,0.6,1.1,0.6c0.5,0,0.8-0.2,1-0.5c0.2-0.3,0.2-1.1,0.2-2.4V82.5z"/>
			<path class="st1" d="M178.3,99.3v32H171l0-21.6l-2.9,21.6H163l-3.1-21.1l0,21.1h-7.3v-32h10.8c0.3,1.9,0.6,4.2,1,6.8l1.2,8.2
				l1.9-15H178.3z"/>
			<path class="st1" d="M188.6,115.2h-7.5v-1.8c0-2,0.2-3.6,0.7-4.7c0.5-1.1,1.4-2.1,2.8-2.9c1.4-0.8,3.2-1.3,5.5-1.3
				c2.7,0,4.7,0.5,6.1,1.4c1.4,1,2.2,2.1,2.5,3.5c0.3,1.4,0.4,4.3,0.4,8.6v13.2h-7.8V129c-0.5,0.9-1.1,1.6-1.9,2.1
				c-0.8,0.5-1.7,0.7-2.8,0.7c-1.4,0-2.7-0.4-3.8-1.2c-1.2-0.8-1.8-2.5-1.8-5.2v-2.2c0-2,0.3-3.3,0.9-4c0.6-0.7,2.2-1.5,4.6-2.5
				c2.6-1,4-1.7,4.2-2.1c0.2-0.4,0.3-1.1,0.3-2.2c0-1.4-0.1-2.3-0.3-2.7c-0.2-0.4-0.5-0.6-1-0.6c-0.5,0-0.9,0.2-1,0.5
				c-0.1,0.3-0.2,1.3-0.2,2.7V115.2z M191.1,118.8c-1.3,0.9-2,1.7-2.2,2.4c-0.2,0.6-0.3,1.5-0.3,2.7c0,1.4,0.1,2.2,0.3,2.6
				c0.2,0.4,0.5,0.6,1.1,0.6c0.5,0,0.8-0.2,1-0.5c0.2-0.3,0.2-1.1,0.2-2.4V118.8z"/>
			<path class="st1" d="M219.5,115H212v-3c0-1.1-0.1-1.8-0.3-2.1c-0.2-0.4-0.5-0.6-0.9-0.6c-0.5,0-0.8,0.2-0.9,0.5
				c-0.2,0.3-0.2,1.1-0.2,2.2v12.4c0,0.9,0.1,1.6,0.4,2.1c0.2,0.5,0.6,0.7,1,0.7c0.5,0,0.9-0.2,1.1-0.7c0.2-0.5,0.3-1.4,0.3-2.8
				v-3.1h7.1c0,2.1-0.1,3.7-0.2,4.7c-0.1,1-0.6,2.1-1.3,3.2c-0.7,1.1-1.7,1.9-2.9,2.5c-1.2,0.6-2.7,0.8-4.5,0.8
				c-2.3,0-4-0.4-5.4-1.2c-1.3-0.8-2.3-1.9-2.8-3.2c-0.5-1.4-0.8-3.4-0.8-5.9V114c0-2.2,0.2-3.9,0.7-5c0.4-1.1,1.4-2.1,2.9-3
				c1.5-0.9,3.2-1.3,5.3-1.3c2.1,0,3.9,0.4,5.3,1.3c1.5,0.9,2.5,2,2.9,3.3C219.3,110.6,219.5,112.5,219.5,115z"/>
			<path class="st1" d="M229.9,99.3v7.2c0.7-0.6,1.4-1.1,2.2-1.4c0.8-0.3,1.7-0.5,2.6-0.5c1.4,0,2.6,0.4,3.6,1.1
				c1,0.7,1.6,1.5,1.8,2.5c0.2,0.9,0.3,2.6,0.3,5.1v18.1h-8v-18.5c0-1.5-0.1-2.5-0.2-2.9c-0.2-0.4-0.5-0.7-1-0.7
				c-0.5,0-0.8,0.2-1,0.7c-0.2,0.5-0.3,1.3-0.3,2.7v18.7h-8v-32H229.9z"/>
			<path class="st1" d="M251.4,99.3v4.2h-8.2v-4.2H251.4z M251.4,105.1v26.3h-8.2v-26.3H251.4z"/>
			<path class="st1" d="M262.4,105.1l-0.1,2.4c0.6-1,1.3-1.7,2.1-2.2c0.8-0.5,1.8-0.7,2.9-0.7c1.4,0,2.5,0.3,3.4,1
				c0.9,0.6,1.4,1.5,1.7,2.4c0.3,1,0.4,2.6,0.4,4.9v18.4h-8v-18.2c0-1.8-0.1-2.9-0.2-3.3c-0.1-0.4-0.4-0.6-1-0.6
				c-0.6,0-0.9,0.2-1.1,0.7c-0.1,0.5-0.2,1.7-0.2,3.7v17.8h-8v-26.3H262.4z"/>
			<path class="st1" d="M293.5,118.7h-10.4v5.7c0,1.2,0.1,2,0.3,2.3c0.2,0.3,0.5,0.5,1,0.5c0.6,0,1-0.2,1.2-0.7
				c0.2-0.5,0.3-1.3,0.3-2.6v-3.5h7.6v1.9c0,1.6-0.1,2.9-0.3,3.7c-0.2,0.9-0.7,1.8-1.4,2.8c-0.8,1-1.7,1.7-2.9,2.2
				c-1.2,0.5-2.6,0.7-4.3,0.7c-1.7,0-3.2-0.2-4.5-0.7c-1.3-0.5-2.3-1.2-3-2c-0.7-0.9-1.2-1.8-1.5-2.8c-0.3-1-0.4-2.5-0.4-4.5v-7.7
				c0-2.3,0.3-4.1,0.9-5.4c0.6-1.3,1.6-2.3,3-3c1.4-0.7,3-1.1,4.9-1.1c2.2,0,4.1,0.4,5.6,1.3c1.5,0.9,2.5,2,3.1,3.4
				c0.6,1.4,0.9,3.4,0.9,5.9V118.7z M285.5,114.4v-1.9c0-1.4-0.1-2.2-0.2-2.6c-0.1-0.4-0.4-0.6-0.9-0.6c-0.6,0-0.9,0.2-1,0.5
				c-0.1,0.3-0.2,1.2-0.2,2.7v1.9H285.5z"/>
		</g>
		<g>
			<path class="st1" d="M295.3,99.2v1.1h-0.8v4.3h-1.4v-4.3h-0.8v-1.1H295.3z"/>
			<path class="st1" d="M299.9,99.2v5.3h-1.2l0-3.6l-0.5,3.6h-0.9l-0.5-3.5v3.5h-1.2v-5.3h1.8c0.1,0.3,0.1,0.7,0.2,1.1l0.2,1.4
				l0.3-2.5H299.9z"/>
		</g>
	</g>
	<path class="st2" d="M21.2,89.6V41.8h22.7l6.8,6.8v9.8l-4.3,6.2l4.7,6.3v11.8l-6.9,6.9H21.2z M43.2,87.3l5.6-5.6v-9.9l-4.6-6.1
		H23.4v21.5H43.2z M44.2,63.5l4.1-5.8v-8.1l-5.5-5.6H23.4v19.4H44.2z"/>
	<path class="st2" d="M48.9,89.7V41.8h21.8l8.2,7.9v31.7l-8,8.2H48.9z M69.6,87.4l7-7V50.8l-7-6.6H51.2v43.2H69.6z"/>
	<polygon class="st2" points="110.6,118 107.7,44.1 107.6,44.1 94.3,89 92.6,89 79.3,44.1 79.2,44.1 78.9,50.1 76.7,49.2 77,41.8 
		80.9,41.8 93.4,83.9 105.9,41.8 109.8,41.8 112.9,118 	"/>
	<path class="st2" d="M22.2,92c-1.9,0-3.5-1.6-3.5-3.5c0-1.9,1.6-3.5,3.5-3.5c1.9,0,3.5,1.6,3.5,3.5C25.6,90.5,24.1,92,22.2,92z"/>
	<path class="st2" d="M93.2,92c-1.9,0-3.5-1.6-3.5-3.5c0-1.9,1.6-3.5,3.5-3.5c1.9,0,3.5,1.6,3.5,3.5C96.6,90.5,95.1,92,93.2,92z"/>
</g>
</svg>
